<?xml version="1.0" encoding="UTF-8" standalone="no"?>
<svg width="375px" height="667px" viewBox="0 0 375 667" version="1.1" xmlns="http://www.w3.org/2000/svg" xmlns:xlink="http://www.w3.org/1999/xlink" style="background: #FFFFFF;">
    <!-- Generator: Sketch 39.1 (31720) - http://www.bohemiancoding.com/sketch -->
    <title>Enter Landline Code (After)</title>
    <desc>Created with Sketch.</desc>
    <defs>
        <rect id="path-1" x="0" y="253" width="375" height="347"></rect>
        <mask id="mask-2" maskContentUnits="userSpaceOnUse" maskUnits="objectBoundingBox" x="-1" y="-1" width="377" height="349">
            <rect x="-1" y="252" width="377" height="349" fill="white"></rect>
            <use xlink:href="#path-1" fill="black"></use>
        </mask>
        <rect id="path-3" x="0" y="0" width="54" height="60" rx="4"></rect>
        <mask id="mask-4" maskContentUnits="userSpaceOnUse" maskUnits="objectBoundingBox" x="0" y="0" width="54" height="60" fill="white">
            <use xlink:href="#path-3"></use>
        </mask>
        <rect id="path-5" x="0" y="0" width="54" height="60" rx="4"></rect>
        <mask id="mask-6" maskContentUnits="userSpaceOnUse" maskUnits="objectBoundingBox" x="0" y="0" width="54" height="60" fill="white">
            <use xlink:href="#path-5"></use>
        </mask>
        <rect id="path-7" x="0" y="0" width="54" height="60" rx="4"></rect>
        <mask id="mask-8" maskContentUnits="userSpaceOnUse" maskUnits="objectBoundingBox" x="0" y="0" width="54" height="60" fill="white">
            <use xlink:href="#path-7"></use>
        </mask>
        <rect id="path-9" x="0" y="0" width="54" height="60" rx="4"></rect>
        <mask id="mask-10" maskContentUnits="userSpaceOnUse" maskUnits="objectBoundingBox" x="0" y="0" width="54" height="60" fill="white">
            <use xlink:href="#path-9"></use>
        </mask>
        <rect id="path-11" x="0" y="0" width="376" height="254"></rect>
        <filter x="-50%" y="-50%" width="200%" height="200%" filterUnits="objectBoundingBox" id="filter-12">
            <feOffset dx="0" dy="2" in="SourceAlpha" result="shadowOffsetOuter1"></feOffset>
            <feGaussianBlur stdDeviation="5" in="shadowOffsetOuter1" result="shadowBlurOuter1"></feGaussianBlur>
            <feColorMatrix values="0 0 0 0 0   0 0 0 0 0   0 0 0 0 0  0 0 0 0.5 0" type="matrix" in="shadowBlurOuter1"></feColorMatrix>
        </filter>
    </defs>
    <g id="Usability-Updates" stroke="none" stroke-width="1" fill="none" fill-rule="evenodd">
        <g id="Enter-Landline-Code-(After)">
            <g id="Bar-Copy-4">
                <use fill="#F5F5F5" fill-rule="evenodd" xlink:href="#path-1"></use>
                <use stroke="#CCCCCC" mask="url(#mask-2)" stroke-width="2" xlink:href="#path-1"></use>
            </g>
            <g id="Status-Bar-Black" transform="translate(1.000000, 0.000000)" fill="#4A4A4A">
                <path d="M9.25,13 C10.7687831,13 12,11.7687831 12,10.25 C12,8.73121694 10.7687831,7.5 9.25,7.5 C7.73121694,7.5 6.5,8.73121694 6.5,10.25 C6.5,11.7687831 7.73121694,13 9.25,13 Z M16.25,13 C17.7687831,13 19,11.7687831 19,10.25 C19,8.73121694 17.7687831,7.5 16.25,7.5 C14.7312169,7.5 13.5,8.73121694 13.5,10.25 C13.5,11.7687831 14.7312169,13 16.25,13 Z M23.25,13 C24.7687831,13 26,11.7687831 26,10.25 C26,8.73121694 24.7687831,7.5 23.25,7.5 C21.7312169,7.5 20.5,8.73121694 20.5,10.25 C20.5,11.7687831 21.7312169,13 23.25,13 Z M30.25,13 C31.7687831,13 33,11.7687831 33,10.25 C33,8.73121694 31.7687831,7.5 30.25,7.5 C28.7312169,7.5 27.5,8.73121694 27.5,10.25 C27.5,11.7687831 28.7312169,13 30.25,13 Z M30.25,12.5 C31.4926407,12.5 32.5,11.4926407 32.5,10.25 C32.5,9.00735931 31.4926407,8 30.25,8 C29.0073593,8 28,9.00735931 28,10.25 C28,11.4926407 29.0073593,12.5 30.25,12.5 Z M37.25,13 C38.7687831,13 40,11.7687831 40,10.25 C40,8.73121694 38.7687831,7.5 37.25,7.5 C35.7312169,7.5 34.5,8.73121694 34.5,10.25 C34.5,11.7687831 35.7312169,13 37.25,13 Z M37.25,12.5 C38.4926407,12.5 39.5,11.4926407 39.5,10.25 C39.5,9.00735931 38.4926407,8 37.25,8 C36.0073593,8 35,9.00735931 35,10.25 C35,11.4926407 36.0073593,12.5 37.25,12.5 Z" id="Mobile-Signal" fill-rule="evenodd"></path>
                <path d="M53.1444208,12.4385043 C52.626374,11.8454456 51.8523616,11.4689119 50.987563,11.4689119 C50.1390073,11.4689119 49.3778594,11.8314341 48.8601652,12.4053177 L51.0225391,14.5 L53.1444208,12.4385043 Z M50.987563,8.48445596 C49.2882723,8.48445596 47.7566264,9.17975893 46.6792698,10.2926936 L47.7692987,11.3486 C48.567205,10.5053708 49.713648,9.97668394 50.987563,9.97668394 C52.2768836,9.97668394 53.4356305,10.518235 54.2346215,11.3793293 L55.3234964,10.3214425 C54.2447794,9.19174563 52.7014387,8.48445596 50.987563,8.48445596 Z M57.5,8.20687933 C55.8629578,6.53943672 53.5505699,5.5 50.987563,5.5 C48.4375103,5.5 46.1355496,6.52895605 44.5,8.18164431 L45.5895579,9.23709441 C46.9460798,7.85431655 48.8628921,6.99222798 50.987563,6.99222798 C53.1260026,6.99222798 55.0538809,7.86552609 56.4118698,9.26404272 L57.5,8.20687933 Z" id="Wi-Fi" fill-rule="evenodd"></path>
                <text id="9:41-AM" font-family="HelveticaNeue, Helvetica Neue" font-size="12" font-weight="normal" letter-spacing="0.100000001">
                    <tspan x="164.192" y="14.5">9:41 AM</tspan>
                </text>
                <text id="100%" font-family="HelveticaNeue, Helvetica Neue" font-size="12" font-weight="normal">
                    <tspan x="309.984" y="14.5">100%</tspan>
                </text>
                <path d="M346.493713,5.5 C345.668758,5.5 345,6.16802155 345,7.00530324 L345,13.4946968 C345,14.3260528 345.67338,15 346.493713,15 L366.006287,15 C366.831242,15 367.5,14.3319784 367.5,13.4946968 L367.5,7.00530324 C367.5,6.17394722 366.82662,5.5 366.006287,5.5 L346.493713,5.5 Z M368,8.5 L368,12 L368.75,12 C369.164214,12 369.5,11.6644053 369.5,11.25774 L369.5,9.24225998 C369.5,8.83232111 369.167101,8.5 368.75,8.5 L368,8.5 Z M346.508152,6 C345.951365,6 345.5,6.45699692 345.5,7.00844055 L345.5,13.4915594 C345.5,14.0485058 345.949058,14.5 346.508152,14.5 L365.991848,14.5 C366.548635,14.5 367,14.0430031 367,13.4915594 L367,7.00844055 C367,6.45149422 366.550942,6 365.991848,6 L346.508152,6 Z M346.506744,6.5 C346.226877,6.5 346,6.71637201 346,6.99209595 L346,13.5079041 C346,13.7796811 346.230225,14 346.506744,14 L365.993256,14 C366.273123,14 366.5,13.783628 366.5,13.5079041 L366.5,6.99209595 C366.5,6.72031886 366.269775,6.5 365.993256,6.5 L346.506744,6.5 Z" id="Battery" fill-rule="evenodd"></path>
            </g>
            <text id="Call-(415)-123-4567" font-family="HelveticaNeue, Helvetica Neue" font-size="20" font-weight="normal" fill="#FFFFFF">
                <tspan x="99.755625" y="559">Call (415) 123-4567</tspan>
            </text>
            <text id="Calling-(415)-555-46" font-family="HelveticaNeue-Medium, Helvetica Neue" font-size="26" font-weight="400" fill="#4D6A78">
                <tspan x="41.523" y="215">Calling (415) 555-4635…</tspan>
            </text>
            <text id="Enter-the-4-digit-co" font-family="Helvetica" font-size="17" font-weight="normal" fill="#222222">
                <tspan x="32.9975586" y="289">Enter the 4-digit code we called you with:</tspan>
            </text>
            <g id="Bar-/-Toolbar" transform="translate(8.000000, 31.000000)" fill="#CF0A2C">
                <polygon id="Back-Arrow" fill-rule="evenodd" points="0.5 11 11 0.5 13 2.5 4.5 11 13 19.5 11 21.5"></polygon>
                <text id="Back" font-family="HelveticaNeue, Helvetica Neue" font-size="17" font-weight="normal">
                    <tspan x="19" y="17">Back</tspan>
                </text>
            </g>
            <g id="Group" transform="translate(49.000000, 313.000000)" stroke-width="2" stroke="#D7D7D7" fill="#FFFFFF">
                <g id="Group-2">
                    <use id="Rectangle-183-Copy" mask="url(#mask-4)" xlink:href="#path-3"></use>
                </g>
                <g id="Group-2" transform="translate(74.000000, 0.000000)">
                    <use id="Rectangle-183-Copy" mask="url(#mask-6)" xlink:href="#path-5"></use>
                </g>
                <g id="Group-2" transform="translate(148.000000, 0.000000)">
                    <use id="Rectangle-183-Copy" mask="url(#mask-8)" xlink:href="#path-7"></use>
                </g>
                <g id="Group-2" transform="translate(222.000000, 0.000000)">
                    <use id="Rectangle-183-Copy" mask="url(#mask-10)" xlink:href="#path-9"></use>
                </g>
            </g>
            <g id="Number-Pad" transform="translate(0.000000, 413.000000)">
                <g id="keyboard.shadow">
                    <use fill="black" fill-opacity="1" filter="url(#filter-12)" xlink:href="#path-11"></use>
                    <use fill="#FCFCFD" fill-rule="evenodd" xlink:href="#path-11"></use>
                </g>
                <g id="keyboard.bg" stroke-width="1" fill-rule="evenodd" fill="#FCFCFD">
                    <rect x="0" y="0" width="376" height="254"></rect>
                </g>
                <g id="lines" stroke-width="1" fill-rule="evenodd" fill="#B3B6BB">
                    <rect id="line" x="0" y="63.5" width="376" height="0.587962963"></rect>
                    <rect id="line" x="0" y="127" width="376" height="0.587962963"></rect>
                    <rect id="line" x="0" y="190.5" width="376" height="0.587962963"></rect>
                    <rect id="line" x="122.7875" y="0" width="0.5875" height="254"></rect>
                    <rect id="line" x="252.625" y="0" width="0.5875" height="254"></rect>
                </g>
                <g id="keys" stroke-width="1" fill-rule="evenodd">
                    <rect id="key" fill="#FCFCFC" x="0" y="0" width="122.7875" height="63.5"></rect>
                    <rect id="key" fill="#FCFCFC" x="0" y="64.087963" width="122.7875" height="62.912037"></rect>
                    <rect id="key" fill="#FCFCFC" x="0" y="127.587963" width="122.7875" height="62.912037"></rect>
                    <rect id="key" fill="#BABDC1" x="0" y="191.087963" width="122.7875" height="62.912037"></rect>
                    <rect id="key" fill="#FCFCFC" x="253.2125" y="0" width="122.7875" height="63.5"></rect>
                    <rect id="key" fill="#FCFCFC" x="253.2125" y="64.087963" width="122.7875" height="62.912037"></rect>
                    <rect id="key" fill="#FCFCFC" x="253.2125" y="127.587963" width="122.7875" height="62.912037"></rect>
                    <rect id="key" fill="#BABDC1" x="253.2125" y="191.087963" width="122.7875" height="62.912037"></rect>
                    <rect id="key" fill="#FCFCFC" x="123.375" y="0" width="129.25" height="63.5"></rect>
                    <rect id="key" fill="#FCFCFC" x="123.375" y="64.087963" width="129.25" height="62.912037"></rect>
                    <rect id="key" fill="#FCFCFC" x="123.375" y="127.587963" width="129.25" height="62.912037"></rect>
                    <rect id="key" fill="#FCFCFC" x="123.375" y="191.087963" width="129.25" height="62.912037"></rect>
                </g>
                <g id="backspace" stroke-width="1" fill-rule="evenodd" transform="translate(303.737500, 215.194444)" fill="#000000">
                    <path d="M13.1474743,9.40740741 L9.19733357,5.45726668 L10.4436093,4.21099098 L14.39375,8.16113171 L18.3438907,4.21099098 L19.5901664,5.45726668 L15.6400257,9.40740741 L19.5901664,13.3575481 L18.3438907,14.6038238 L14.39375,10.6536831 L10.4436093,14.6038238 L9.19733357,13.3575481 L13.1474743,9.40740741 Z M7.6375,0 L7.6375,18.8148148 L18.6682148,18.8148148 C21.9856707,18.8148148 24.675,16.1191106 24.675,12.8099598 L24.675,6.00485498 C24.675,2.68846515 21.9941483,0 18.6682148,0 L7.6375,0 Z M0.192284046,7.94782181 C-0.562846081,8.75392868 -0.281513851,9.40740741 0.824692656,9.40740741 L7.6375,9.40740741 L7.6375,0 L0.192284046,7.94782181 Z M0.192284046,10.866993 C-0.562846081,10.0608861 -0.281513851,9.40740741 0.824692656,9.40740741 L7.6375,9.40740741 L7.6375,18.8148148 L0.192284046,10.866993 Z"></path>
                </g>
                <g id="letters" stroke-width="1" fill-rule="evenodd" transform="translate(45.237500, 42.921296)" fill="#000000">
                    <path d="M130.898525,6.37351852 L132.7468,1.63924074 L134.53045,6.37351852 L130.898525,6.37351852 Z M132.294425,0.759648148 L128.58495,9.99537037 L129.51555,9.99537037 L130.6271,7.12375926 L134.827725,7.12375926 L135.9522,9.99537037 L136.895725,9.99537037 L133.276725,0.759648148 L132.294425,0.759648148 Z M140.37725,4.80836111 L140.37725,1.50988889 L143.4017,1.50988889 C144.78899,1.50988889 145.482625,2.08765472 145.482625,3.2432037 C145.482625,3.4587912 145.439542,3.66144041 145.353375,3.85115741 C145.267208,4.04087441 145.137959,4.20687429 144.965625,4.34916204 C144.793291,4.49144979 144.577876,4.6035536 144.319375,4.68547685 C144.060874,4.7674001 143.754985,4.80836111 143.4017,4.80836111 L140.37725,4.80836111 Z M139.49835,0.759648148 L139.49835,9.99537037 L143.4017,9.99537037 C143.901469,9.99537037 144.330144,9.95009767 144.687737,9.85955093 C145.045331,9.76900418 145.346911,9.65258867 145.592488,9.51030093 C145.838064,9.36801318 146.034091,9.20201329 146.180575,9.0122963 C146.327059,8.8225793 146.439075,8.6307093 146.516625,8.43668056 C146.594175,8.24265181 146.645875,8.05293766 146.671725,7.86753241 C146.697575,7.68212716 146.7105,7.51612728 146.7105,7.36952778 C146.7105,6.76588278 146.53386,6.25925976 146.180575,5.84964352 C145.82729,5.44002727 145.353378,5.19641705 144.758825,5.11880556 L144.758825,5.09293519 C145.000093,5.04119419 145.217662,4.95064879 145.411538,4.8212963 C145.605413,4.6919438 145.773437,4.53456729 145.915612,4.34916204 C146.057788,4.16375679 146.16765,3.9567959 146.2452,3.72827315 C146.32275,3.4997504 146.361525,3.26476355 146.361525,3.02330556 C146.361525,2.59213056 146.279667,2.23210484 146.11595,1.94321759 C145.952233,1.65433035 145.734664,1.42149934 145.463237,1.24471759 C145.191811,1.06793584 144.877306,0.942896971 144.519712,0.869597222 C144.162119,0.796297473 143.789452,0.759648148 143.4017,0.759648148 L139.49835,0.759648148 Z M140.37725,9.24512963 L140.37725,5.55860185 L143.4017,5.55860185 C144.185821,5.55860185 144.786827,5.70735499 145.204737,6.00486574 C145.622648,6.30237649 145.8316,6.74863591 145.8316,7.34365741 C145.8316,7.7144679 145.766976,8.0227534 145.637725,8.26852315 C145.508474,8.5142929 145.331834,8.71047458 145.1078,8.85707407 C144.883766,9.00367357 144.625268,9.10499818 144.3323,9.16105093 C144.039332,9.21710368 143.729135,9.24512963 143.4017,9.24512963 L140.37725,9.24512963 Z M156.628675,3.55364815 L157.507575,3.55364815 C157.447258,3.07073215 157.30293,2.64387531 157.074587,2.27306481 C156.846245,1.90225432 156.561898,1.58965714 156.221537,1.33526389 C155.881177,1.08087064 155.502048,0.889000647 155.084137,0.759648148 C154.666227,0.63029565 154.237552,0.56562037 153.7981,0.56562037 C153.074296,0.56562037 152.438824,0.697126771 151.891662,0.960143519 C151.344501,1.22316027 150.889977,1.57671846 150.528075,2.0208287 C150.166173,2.46493895 149.894751,2.97587365 149.7138,3.55364815 C149.532849,4.13142264 149.442375,4.73937027 149.442375,5.37750926 C149.442375,6.01564825 149.532849,6.62359588 149.7138,7.20137037 C149.894751,7.77914486 150.166173,8.28792373 150.528075,8.72772222 C150.889977,9.16752072 151.344501,9.51892307 151.891662,9.78193981 C152.438824,10.0449566 153.074296,10.176463 153.7981,10.176463 C154.340953,10.176463 154.834252,10.0902293 155.278012,9.91775926 C155.721773,9.74528926 156.107365,9.4995232 156.4348,9.1804537 C156.762235,8.86138421 157.029349,8.47333253 157.23615,8.01628704 C157.442951,7.55924154 157.576508,7.04615099 157.636825,6.477 L156.757925,6.477 C156.714841,6.890928 156.615751,7.27682383 156.46065,7.63469907 C156.305549,7.99257432 156.10306,8.3051715 155.853175,8.5725 C155.60329,8.8398285 155.306018,9.05110108 154.96135,9.20632407 C154.616682,9.36154707 154.228935,9.43915741 153.7981,9.43915741 C153.186314,9.43915741 152.660702,9.3227419 152.22125,9.08990741 C151.781798,8.85707291 151.422056,8.54878741 151.142012,8.16504167 C150.861969,7.78129592 150.655172,7.34581571 150.521613,6.85858796 C150.388053,6.37136022 150.321275,5.87767225 150.321275,5.37750926 C150.321275,4.86872276 150.388053,4.37287896 150.521613,3.88996296 C150.655172,3.40704697 150.861969,2.9737226 151.142012,2.58997685 C151.422056,2.20623111 151.781798,1.89794561 152.22125,1.66511111 C152.660702,1.43227661 153.186314,1.31586111 153.7981,1.31586111 C154.134152,1.31586111 154.455119,1.36544549 154.761012,1.46461574 C155.066906,1.56378599 155.346945,1.70822745 155.601137,1.89794444 C155.85533,2.08766144 156.070745,2.32264829 156.247387,2.60291204 C156.42403,2.88317578 156.551125,3.20008465 156.628675,3.55364815 L156.628675,3.55364815 Z" id="ABC"></path>
                    <path d="M260.6056,0.759648148 L260.6056,9.99537037 L263.798075,9.99537037 C265.202599,9.96087637 266.260284,9.56635717 266.971162,8.81180093 C267.682041,8.05724468 268.037475,6.91249224 268.037475,5.37750926 C268.037475,3.84252628 267.682041,2.69777383 266.971162,1.94321759 C266.260284,1.18866135 265.202599,0.794142148 263.798075,0.759648148 L260.6056,0.759648148 Z M261.4845,9.24512963 L261.4845,1.50988889 L263.358625,1.50988889 C264.022112,1.50988889 264.59296,1.5810317 265.071188,1.72331944 C265.549415,1.86560719 265.943623,2.09197067 266.253825,2.40241667 C266.564027,2.71286266 266.792366,3.11384939 266.93885,3.60538889 C267.085334,4.09692838 267.158575,4.68762927 267.158575,5.37750926 C267.158575,6.06738925 267.085334,6.65809013 266.93885,7.14962963 C266.792366,7.64116912 266.564027,8.04215586 266.253825,8.35260185 C265.943623,8.66304785 265.549415,8.88941133 265.071188,9.03169907 C264.59296,9.17398682 264.022112,9.24512963 263.358625,9.24512963 L261.4845,9.24512963 Z M271.221725,0.759648148 L271.221725,9.99537037 L277.658375,9.99537037 L277.658375,9.24512963 L272.100625,9.24512963 L272.100625,5.59740741 L277.244775,5.59740741 L277.244775,4.84716667 L272.100625,4.84716667 L272.100625,1.50988889 L277.59375,1.50988889 L277.59375,0.759648148 L271.221725,0.759648148 Z M280.64875,0.759648148 L280.64875,9.99537037 L281.52765,9.99537037 L281.52765,5.59740741 L285.948,5.59740741 L285.948,4.84716667 L281.52765,4.84716667 L281.52765,1.50988889 L286.503775,1.50988889 L286.503775,0.759648148 L280.64875,0.759648148 Z" id="DEF"></path>
                    <path d="M135.6655,64.2596481 L135.6655,70.5461481 C135.6655,70.9686996 135.63965,71.3308812 135.58795,71.6327037 C135.53625,71.9345262 135.445776,72.1824481 135.316525,72.3764769 C135.187274,72.5705056 135.010634,72.7127912 134.7866,72.803338 C134.562566,72.8938847 134.278218,72.9391574 133.93355,72.9391574 C133.476864,72.9391574 133.130047,72.8507679 132.893087,72.6739861 C132.656128,72.4972044 132.485951,72.2837759 132.38255,72.0336944 C132.279149,71.7836129 132.218833,71.5206001 132.2016,71.2446481 C132.184367,70.9686962 132.171442,70.7315535 132.162825,70.533213 L131.283925,70.533213 C131.283925,70.9385175 131.318391,71.3308808 131.387325,71.7103148 C131.456259,72.0897488 131.585507,72.4239044 131.775075,72.7127917 C131.964643,73.0016789 132.227448,73.2345099 132.5635,73.4112917 C132.899552,73.5880734 133.330381,73.676463 133.856,73.676463 C134.355769,73.676463 134.775827,73.6204111 135.116187,73.5083056 C135.456548,73.3962001 135.732278,73.2280443 135.943388,73.0038333 C136.154497,72.7796223 136.307441,72.4950511 136.402225,72.1501111 C136.497009,71.8051711 136.5444,71.395561 136.5444,70.9212685 L136.5444,64.2596481 L135.6655,64.2596481 Z M140.1681,64.2596481 L140.1681,73.4953704 L141.047,73.4953704 L141.047,70.32625 L142.817725,68.6834815 L146.65645,73.4953704 L147.79385,73.4953704 L143.4769,68.0755278 L147.599975,64.2596481 L146.410875,64.2596481 L141.047,69.2267593 L141.047,64.2596481 L140.1681,64.2596481 Z M150.306,64.2596481 L150.306,73.4953704 L156.3549,73.4953704 L156.3549,72.7451296 L151.1849,72.7451296 L151.1849,64.2596481 L150.306,64.2596481 Z" id="JKL"></path>
                    <path d="M16.45235,73.4953704 L16.45235,68.7998981 L12.536075,68.7998981 L12.536075,69.5501389 L15.67685,69.5501389 C15.6854667,70.0416784 15.6208424,70.4944053 15.482975,70.9083333 C15.3451076,71.3222613 15.1383097,71.6801312 14.862575,71.9819537 C14.5868403,72.2837762 14.2486395,72.518763 13.8479625,72.6869213 C13.4472855,72.8550795 12.9927609,72.9391574 12.484375,72.9391574 C11.8725886,72.9391574 11.3469772,72.8227419 10.907525,72.5899074 C10.4680728,72.3570729 10.1083306,72.0487874 9.8282875,71.6650417 C9.54824443,71.2812959 9.3414465,70.8458157 9.2078875,70.358588 C9.0743285,69.8713602 9.00755,69.3776723 9.00755,68.8775093 C9.00755,68.3687228 9.0743285,67.872879 9.2078875,67.389963 C9.3414465,66.907047 9.54824443,66.4737226 9.8282875,66.0899769 C10.1083306,65.7062311 10.4680728,65.3979456 10.907525,65.1651111 C11.3469772,64.9322766 11.8725886,64.8158611 12.484375,64.8158611 C12.9238272,64.8158611 13.3201899,64.8870039 13.673475,65.0292917 C14.0267601,65.1715794 14.3304946,65.354826 14.5846875,65.579037 C14.8388804,65.803248 15.0413701,66.0511699 15.1921625,66.3228102 C15.3429549,66.5944504 15.4312749,66.8639308 15.457125,67.1312593 L16.336025,67.1312593 C16.2498579,66.6224728 16.0904512,66.1783692 15.8578,65.7989352 C15.6251488,65.4195012 15.3408017,65.1004365 15.00475,64.8417315 C14.6686983,64.5830265 14.2852605,64.3890006 13.854425,64.2596481 C13.4235895,64.1302956 12.9669107,64.0656204 12.484375,64.0656204 C11.7605714,64.0656204 11.1250986,64.1971268 10.5779375,64.4601435 C10.0307764,64.7231603 9.57625181,65.0767185 9.21435,65.5208287 C8.85244819,65.9649389 8.5810259,66.4758737 8.400075,67.0536481 C8.2191241,67.6314226 8.12865,68.2393703 8.12865,68.8775093 C8.12865,69.5156483 8.2191241,70.1235959 8.400075,70.7013704 C8.5810259,71.2791449 8.85244819,71.7879237 9.21435,72.2277222 C9.57625181,72.6675207 10.0307764,73.0189231 10.5779375,73.2819398 C11.1250986,73.5449566 11.7605714,73.676463 12.484375,73.676463 C12.8204267,73.676463 13.1457026,73.6419695 13.4602125,73.5729815 C13.7747224,73.5039935 14.0698403,73.3940455 14.345575,73.2431343 C14.6213097,73.092223 14.8733447,72.8981972 15.1016875,72.6610509 C15.3300303,72.4239047 15.5217492,72.1414893 15.67685,71.8137963 L15.7027,71.8137963 L15.819025,73.4953704 L16.45235,73.4953704 Z M19.908025,64.2596481 L19.908025,73.4953704 L20.786925,73.4953704 L20.786925,69.0197963 L26.267125,69.0197963 L26.267125,73.4953704 L27.146025,73.4953704 L27.146025,64.2596481 L26.267125,64.2596481 L26.267125,68.2695556 L20.786925,68.2695556 L20.786925,64.2596481 L19.908025,64.2596481 Z M30.83435,64.2596481 L30.83435,73.4953704 L31.71325,73.4953704 L31.71325,64.2596481 L30.83435,64.2596481 Z" id="GHI"></path>
                    <path d="M258.93475,64.2596481 L261.997975,72.3570741 L265.177525,64.2596481 L266.470025,64.2596481 L266.470025,73.4953704 L265.591125,73.4953704 L265.591125,65.5143611 L265.565275,65.5143611 L262.411575,73.4953704 L261.584375,73.4953704 L258.547,65.5143611 L258.52115,65.5143611 L258.52115,73.4953704 L257.64225,73.4953704 L257.64225,64.2596481 L258.93475,64.2596481 Z M270.0291,64.2596481 L270.0291,73.4953704 L270.908,73.4953704 L270.908,65.6825185 L270.93385,65.6825185 L276.31065,73.4953704 L277.29295,73.4953704 L277.29295,64.2596481 L276.41405,64.2596481 L276.41405,72.0725 L276.3882,72.0725 L271.0114,64.2596481 L270.0291,64.2596481 Z M281.291475,68.8775093 C281.291475,68.3687228 281.358253,67.872879 281.491812,67.389963 C281.625372,66.907047 281.832169,66.4737226 282.112212,66.0899769 C282.392256,65.7062311 282.751998,65.3979456 283.19145,65.1651111 C283.630902,64.9322766 284.156514,64.8158611 284.7683,64.8158611 C285.380086,64.8158611 285.903544,64.9322766 286.338687,65.1651111 C286.773831,65.3979456 287.131419,65.7062311 287.411462,66.0899769 C287.691506,66.4737226 287.898303,66.907047 288.031862,67.389963 C288.165422,67.872879 288.2322,68.3687228 288.2322,68.8775093 C288.2322,69.3776723 288.165422,69.8713602 288.031862,70.358588 C287.898303,70.8458157 287.691506,71.2812959 287.411462,71.6650417 C287.131419,72.0487874 286.773831,72.3570729 286.338687,72.5899074 C285.903544,72.8227419 285.380086,72.9391574 284.7683,72.9391574 C284.156514,72.9391574 283.630902,72.8227419 283.19145,72.5899074 C282.751998,72.3570729 282.392256,72.0487874 282.112212,71.6650417 C281.832169,71.2812959 281.625372,70.8458157 281.491812,70.358588 C281.358253,69.8713602 281.291475,69.3776723 281.291475,68.8775093 L281.291475,68.8775093 Z M280.412575,68.8775093 C280.412575,69.5156483 280.503049,70.1235959 280.684,70.7013704 C280.864951,71.2791449 281.136373,71.7879237 281.498275,72.2277222 C281.860177,72.6675207 282.314701,73.0189231 282.861862,73.2819398 C283.409024,73.5449566 284.044496,73.676463 284.7683,73.676463 C285.492104,73.676463 286.125422,73.5449566 286.668275,73.2819398 C287.211128,73.0189231 287.663498,72.6675207 288.0254,72.2277222 C288.387302,71.7879237 288.658724,71.2791449 288.839675,70.7013704 C289.020626,70.1235959 289.1111,69.5156483 289.1111,68.8775093 C289.1111,68.2393703 289.020626,67.6314226 288.839675,67.0536481 C288.658724,66.4758737 288.387302,65.9649389 288.0254,65.5208287 C287.663498,65.0767185 287.211128,64.7231603 286.668275,64.4601435 C286.125422,64.1971268 285.492104,64.0656204 284.7683,64.0656204 C284.044496,64.0656204 283.409024,64.1971268 282.861862,64.4601435 C282.314701,64.7231603 281.860177,65.0767185 281.498275,65.5208287 C281.136373,65.9649389 280.864951,66.4758737 280.684,67.0536481 C280.503049,67.6314226 280.412575,68.2393703 280.412575,68.8775093 L280.412575,68.8775093 Z" id="MNO"></path>
                    <path d="M129.7858,127.759648 L129.7858,128.509889 L132.9912,128.509889 L132.9912,136.99537 L133.8701,136.99537 L133.8701,128.509889 L137.088425,128.509889 L137.088425,127.759648 L129.7858,127.759648 Z M139.626425,127.759648 L139.626425,133.671028 C139.626425,134.14532 139.693203,134.595891 139.826762,135.022755 C139.960322,135.449618 140.171428,135.822579 140.460087,136.141648 C140.748747,136.460718 141.11926,136.712951 141.571638,136.898356 C142.024015,137.083762 142.569013,137.176463 143.20665,137.176463 C143.852903,137.176463 144.40221,137.083762 144.854587,136.898356 C145.306965,136.712951 145.677478,136.460718 145.966138,136.141648 C146.254797,135.822579 146.465903,135.449618 146.599462,135.022755 C146.733022,134.595891 146.7998,134.14532 146.7998,133.671028 L146.7998,127.759648 L145.9209,127.759648 L145.9209,133.477 C145.9209,134.011657 145.860584,134.46654 145.73995,134.841662 C145.619316,135.216784 145.442676,135.522914 145.210025,135.76006 C144.977374,135.997206 144.693027,136.169674 144.356975,136.277468 C144.020923,136.385261 143.637485,136.439157 143.20665,136.439157 C142.784431,136.439157 142.405302,136.385261 142.06925,136.277468 C141.733198,136.169674 141.448851,135.997206 141.2162,135.76006 C140.983549,135.522914 140.806909,135.216784 140.686275,134.841662 C140.565641,134.46654 140.505325,134.011657 140.505325,133.477 L140.505325,127.759648 L139.626425,127.759648 Z M149.324875,127.759648 L152.737075,136.99537 L153.75815,136.99537 L157.183275,127.759648 L156.252675,127.759648 L153.279925,136.025231 L153.254075,136.025231 L150.255475,127.759648 L149.324875,127.759648 Z" id="TUV"></path>
                    <path d="M1.222,132.286963 L1.222,128.509889 L4.24645,128.509889 C4.85823639,128.509889 5.35368977,128.66511 5.732825,128.975556 C6.11196023,129.286002 6.301525,129.760287 6.301525,130.398426 C6.301525,131.036565 6.11196023,131.51085 5.732825,131.821296 C5.35368977,132.131742 4.85823639,132.286963 4.24645,132.286963 L1.222,132.286963 Z M0.3431,127.759648 L0.3431,136.99537 L1.222,136.99537 L1.222,133.037204 L4.440325,133.037204 C4.85392707,133.037204 5.22874832,132.978996 5.5648,132.862579 C5.90085168,132.746161 6.18950713,132.573694 6.430775,132.345171 C6.67204287,132.116649 6.85729935,131.838545 6.98655,131.510852 C7.11580065,131.183159 7.180425,130.812354 7.180425,130.398426 C7.180425,129.984498 7.11580065,129.613693 6.98655,129.286 C6.85729935,128.958307 6.67204287,128.680203 6.430775,128.451681 C6.18950713,128.223158 5.90085168,128.05069 5.5648,127.934273 C5.22874832,127.817856 4.85392707,127.759648 4.440325,127.759648 L0.3431,127.759648 Z M17.938725,137.577454 L18.378175,137.034176 L17.059825,136.038167 C17.5251273,135.589745 17.8740988,135.048628 18.10675,134.414801 C18.3394012,133.780974 18.455725,133.101883 18.455725,132.377509 C18.455725,131.73937 18.3652509,131.131423 18.1843,130.553648 C18.0033491,129.975874 17.7319268,129.464939 17.370025,129.020829 C17.0081232,128.576718 16.5557527,128.22316 16.0129,127.960144 C15.4700473,127.697127 14.8367286,127.56562 14.112925,127.56562 C13.3891214,127.56562 12.7536486,127.697127 12.2064875,127.960144 C11.6593264,128.22316 11.2048018,128.576718 10.8429,129.020829 C10.4809982,129.464939 10.2095759,129.975874 10.028625,130.553648 C9.8476741,131.131423 9.7572,131.73937 9.7572,132.377509 C9.7572,133.015648 9.8476741,133.623596 10.028625,134.20137 C10.2095759,134.779145 10.4809982,135.287924 10.8429,135.727722 C11.2048018,136.167521 11.6593264,136.518923 12.2064875,136.78194 C12.7536486,137.044957 13.3891214,137.176463 14.112925,137.176463 C15.0779965,137.176463 15.8750302,136.952255 16.50405,136.503833 L17.938725,137.577454 Z M16.40065,135.533694 L15.05645,134.511815 L14.604075,135.068028 L15.819025,135.986426 C15.3364893,136.288248 14.7677949,136.439157 14.112925,136.439157 C13.5011386,136.439157 12.9755272,136.322742 12.536075,136.089907 C12.0966228,135.857073 11.7368806,135.548787 11.4568375,135.165042 C11.1767944,134.781296 10.9699965,134.345816 10.8364375,133.858588 C10.7028785,133.37136 10.6361,132.877672 10.6361,132.377509 C10.6361,131.868723 10.7028785,131.372879 10.8364375,130.889963 C10.9699965,130.407047 11.1767944,129.973723 11.4568375,129.589977 C11.7368806,129.206231 12.0966228,128.897946 12.536075,128.665111 C12.9755272,128.432277 13.5011386,128.315861 14.112925,128.315861 C14.7247114,128.315861 15.2481687,128.432277 15.6833125,128.665111 C16.1184563,128.897946 16.4760444,129.206231 16.7560875,129.589977 C17.0361306,129.973723 17.2429285,130.407047 17.3764875,130.889963 C17.5100465,131.372879 17.576825,131.868723 17.576825,132.377509 C17.576825,132.972531 17.4841968,133.550297 17.2989375,134.110824 C17.1136782,134.671352 16.8142521,135.145637 16.40065,135.533694 L16.40065,135.533694 Z M22.467175,132.144676 L22.467175,128.509889 L25.750125,128.509889 C26.4222284,128.509889 26.92199,128.673733 27.249425,129.001426 C27.57686,129.329119 27.740575,129.777534 27.740575,130.346685 C27.740575,130.631261 27.6867214,130.883494 27.5790125,131.103394 C27.4713036,131.323293 27.3269759,131.510851 27.146025,131.666074 C26.9650741,131.821297 26.7539679,131.939868 26.5127,132.021792 C26.2714321,132.103715 26.017243,132.144676 25.750125,132.144676 L22.467175,132.144676 Z M21.588275,127.759648 L21.588275,136.99537 L22.467175,136.99537 L22.467175,132.894917 L25.801825,132.894917 C26.2154271,132.87767 26.540703,132.946657 26.7776625,133.10188 C27.014622,133.257103 27.1955702,133.461908 27.3205125,133.716301 C27.4454548,133.970694 27.5273123,134.259577 27.5660875,134.582958 C27.6048627,134.90634 27.6328666,135.231872 27.6501,135.559565 C27.6587167,135.654423 27.6673333,135.766527 27.67595,135.89588 C27.6845667,136.025232 27.6953374,136.156739 27.7082625,136.290403 C27.7211876,136.424067 27.742729,136.553418 27.7728875,136.678458 C27.803046,136.803499 27.8439747,136.909135 27.895675,136.99537 L28.86505,136.99537 C28.7702662,136.883265 28.6948711,136.725888 28.6388625,136.523236 C28.5828539,136.320584 28.5419251,136.105 28.516075,135.876477 C28.4902249,135.647954 28.4729917,135.421591 28.464375,135.19738 C28.4557583,134.973169 28.4471417,134.783454 28.438525,134.628231 C28.4212916,134.352279 28.3846711,134.095734 28.3286625,133.858588 C28.2726539,133.621442 28.1821798,133.412325 28.0572375,133.231231 C27.9322952,133.050138 27.7707343,132.901385 27.57255,132.784968 C27.3743657,132.66855 27.1244848,132.588784 26.8229,132.545667 L26.8229,132.519796 C27.417453,132.399067 27.8655152,132.123119 28.1671,131.691944 C28.4686848,131.260769 28.619475,130.751991 28.619475,130.165593 C28.619475,129.751665 28.5440799,129.391639 28.3932875,129.085505 C28.2424951,128.77937 28.0400054,128.529293 27.7858125,128.335264 C27.5316196,128.141235 27.2343475,127.996794 26.8939875,127.901935 C26.5536275,127.807077 26.1938852,127.759648 25.81475,127.759648 L21.588275,127.759648 Z M32.38535,133.955602 L31.50645,133.955602 C31.4805999,134.524753 31.555995,135.011973 31.7326375,135.417278 C31.90928,135.822582 32.161315,136.154582 32.48875,136.413287 C32.816185,136.671992 33.2125477,136.863862 33.67785,136.988903 C34.1431523,137.113944 34.6472223,137.176463 35.190075,137.176463 C35.7329277,137.176463 36.1982231,137.126879 36.585975,137.027708 C36.9737269,136.928538 37.2990029,136.799188 37.5618125,136.639653 C37.8246221,136.480118 38.0314201,136.301183 38.1822125,136.102843 C38.3330049,135.904502 38.4493288,135.70832 38.5311875,135.514292 C38.6130462,135.320263 38.6647457,135.137016 38.6862875,134.964546 C38.7078293,134.792076 38.7186,134.654102 38.7186,134.55062 C38.7186,134.171186 38.6561298,133.84781 38.5311875,133.580481 C38.4062452,133.313153 38.2339136,133.08679 38.0141875,132.901384 C37.7944614,132.715979 37.5402723,132.560758 37.2516125,132.435718 C36.9629527,132.310677 36.65491,132.205041 36.327475,132.118806 L34.078525,131.562593 C33.8889574,131.519475 33.7101633,131.463423 33.5421375,131.394435 C33.3741117,131.325447 33.2254756,131.234902 33.096225,131.122796 C32.9669744,131.010691 32.8657295,130.874873 32.7924875,130.715338 C32.7192455,130.555803 32.682625,130.368245 32.682625,130.152657 C32.682625,129.807717 32.7472494,129.518834 32.8765,129.286 C33.0057506,129.053166 33.1759281,128.865607 33.3870375,128.723319 C33.5981469,128.581032 33.8437194,128.477551 34.1237625,128.412875 C34.4038056,128.348199 34.6946152,128.315861 34.9962,128.315861 C35.323635,128.315861 35.635986,128.361134 35.9332625,128.451681 C36.230539,128.542227 36.4933447,128.67589 36.7216875,128.852671 C36.9500303,129.029453 37.1352868,129.249349 37.2774625,129.512366 C37.4196382,129.775382 37.4993416,130.083668 37.516575,130.437231 L38.395475,130.437231 C38.395475,129.962939 38.3028468,129.546861 38.1175875,129.188986 C37.9323282,128.831111 37.6846016,128.531449 37.3744,128.289991 C37.0641984,128.048533 36.7023021,127.867442 36.2887,127.746713 C35.8750979,127.625984 35.4399606,127.56562 34.983275,127.56562 C34.3370218,127.56562 33.8071021,127.658322 33.3935,127.843727 C32.9798979,128.029132 32.654622,128.255496 32.4176625,128.522824 C32.180703,128.790153 32.0191421,129.074724 31.932975,129.376546 C31.8468079,129.678369 31.803725,129.941382 31.803725,130.165593 C31.803725,130.52778 31.8618869,130.833909 31.9782125,131.083991 C32.0945381,131.334072 32.2474824,131.545345 32.43705,131.717815 C32.6266176,131.890285 32.8484946,132.028259 33.1026875,132.131741 C33.3568804,132.235223 33.617532,132.321456 33.88465,132.390444 L35.939725,132.894917 C36.1551427,132.946658 36.3748655,133.013489 36.5989,133.095412 C36.8229345,133.177335 37.0275782,133.282972 37.2128375,133.412324 C37.3980968,133.541677 37.5488869,133.701209 37.6652125,133.890926 C37.7815381,134.080643 37.8397,134.304851 37.8397,134.563556 C37.8397,134.899872 37.7578425,135.186599 37.594125,135.423745 C37.4304075,135.660892 37.2257637,135.854917 36.9801875,136.005829 C36.7346113,136.15674 36.4696514,136.266688 36.1853,136.335676 C35.9009486,136.404664 35.6381429,136.439157 35.396875,136.439157 C34.9746562,136.439157 34.5782935,136.398196 34.207775,136.316273 C33.8372565,136.23435 33.5162889,136.098532 33.2448625,135.908815 C32.9734361,135.719098 32.7601758,135.464708 32.605075,135.145639 C32.4499742,134.826569 32.3767333,134.429894 32.38535,133.955602 L32.38535,133.955602 Z" id="PQRS"></path>
                    <path d="M253.2125,127.759648 L255.77165,136.99537 L256.7281,136.99537 L259.0546,128.729787 L259.08045,128.729787 L261.419875,136.99537 L262.350475,136.99537 L264.8967,127.759648 L264.0178,127.759648 L261.911025,135.844139 L261.885175,135.844139 L259.6233,127.759648 L258.524675,127.759648 L256.275725,135.844139 L256.249875,135.844139 L254.156025,127.759648 L253.2125,127.759648 Z M266.73675,127.759648 L269.8646,132.235222 L266.5558,136.99537 L267.5381,136.99537 L270.3816,132.920787 L273.186325,136.99537 L274.246175,136.99537 L270.911525,132.261093 L274.065225,127.759648 L273.082925,127.759648 L270.3816,131.627269 L267.77075,127.759648 L266.73675,127.759648 Z M279.3821,133.192426 L279.3821,136.99537 L280.261,136.99537 L280.261,133.192426 L283.90585,127.759648 L282.858925,127.759648 L279.834475,132.442185 L276.7971,127.759648 L275.7631,127.759648 L279.3821,133.192426 Z M286.017325,127.759648 L286.017325,128.509889 L291.678475,128.509889 L285.603725,136.219259 L285.603725,136.99537 L292.790025,136.99537 L292.790025,136.24513 L286.586025,136.24513 L292.660775,128.535759 L292.660775,127.759648 L286.017325,127.759648 Z" id="WXYZ"></path>
                </g>
                <g id="hash-+-plus-+-star" stroke-width="1" fill-rule="evenodd" transform="translate(27.612500, 214.606481)" fill="#000000">
                    <g id="hash" transform="translate(46.412500, 0.000000)">
                        <path d="M12.925,10.5840278 L12.925,6.46689815 L17.044213,6.46689815 L17.044213,4.70439815 L12.925,4.70439815 L12.925,0 L11.1625,0 L11.1625,4.70439815 L5.875,4.70439815 L5.875,0 L4.1125,0 L4.1125,4.70439815 L-0.00671296296,4.70439815 L-0.00671296296,6.46689815 L4.1125,6.46689815 L4.1125,10.5840278 L-0.00671296296,10.5840278 L-0.00671296296,12.3465278 L4.1125,12.3465278 L4.1125,17.0509259 L5.875,17.0509259 L5.875,12.3465278 L11.1625,12.3465278 L11.1625,17.0509259 L12.925,17.0509259 L12.925,12.3465278 L17.044213,12.3465278 L17.044213,10.5840278 L12.925,10.5840278 Z M11.1625,10.5840278 L11.1625,6.46689815 L5.875,6.46689815 L5.875,10.5840278 L11.1625,10.5840278 Z"></path>
                    </g>
                    <g id="plus">
                        <path d="M7.6375,7.64421296 L7.6375,0 L9.4,0 L9.4,7.64421296 L17.044213,7.64421296 L17.044213,9.40671296 L9.4,9.40671296 L9.4,17.0509259 L7.6375,17.0509259 L7.6375,9.40671296 L-0.00671296296,9.40671296 L-0.00671296296,7.64421296 L7.6375,7.64421296 Z"></path>
                    </g>
                    <g id="star" transform="translate(22.325000, 0.587963)">
                        <path d="M8.8125,6.7625 L12.5664416,0.260482495 L13.5840214,0.847982495 L9.83007985,7.35 L17.337963,7.35 L17.337963,8.525 L9.83007985,8.525 L13.5840214,15.0270175 L12.5664416,15.6145175 L8.8125,9.1125 L5.05855844,15.6145175 L4.04097859,15.0270175 L7.79492015,8.525 L0.287037037,8.525 L0.287037037,7.35 L7.79492015,7.35 L4.04097859,0.847982495 L5.05855844,0.260482495 L8.8125,6.7625 Z"></path>
                    </g>
                </g>
                <path d="M66.696525,34.2700093 L66.696525,11.7592593 L64.6344,11.7592593 C64.4863493,12.6059302 64.211402,13.3044232 63.80955,13.8547593 C63.407698,14.4050953 62.9159654,14.8390077 62.3343375,15.1565093 C61.7527096,15.4740108 61.1023536,15.690967 60.38325,15.8073843 C59.6641464,15.9238015 58.9239038,15.9820093 58.1625,15.9820093 L58.1625,18.1410093 L63.9999,18.1410093 L63.9999,34.2700093 L66.696525,34.2700093 Z" id="1" fill="#000000" fill-rule="evenodd"></path>
                <path d="M180.4095,19.7285093 L183.106125,19.7285093 C183.084975,19.0511725 183.153712,18.3791376 183.312338,17.7123843 C183.470963,17.0456309 183.730048,16.4476786 184.0896,15.9185093 C184.449152,15.3893399 184.90916,14.9607192 185.469638,14.6326343 C186.030115,14.3045493 186.701621,14.1405093 187.484175,14.1405093 C188.076378,14.1405093 188.636847,14.2357583 189.1656,14.4262593 C189.694353,14.6167602 190.154361,14.8919241 190.545638,15.2517593 C190.936914,15.6115944 191.248874,16.0402151 191.481525,16.5376343 C191.714176,17.0350534 191.8305,17.5906729 191.8305,18.2045093 C191.8305,18.9876798 191.708889,19.6755896 191.465663,20.2682593 C191.222436,20.8609289 190.86289,21.4112567 190.387012,21.9192593 C189.911135,22.4272618 189.313654,22.9299651 188.59455,23.4273843 C187.875446,23.9248034 187.04003,24.4698396 186.088275,25.0625093 C185.305721,25.5281783 184.554904,26.0255899 183.8358,26.5547593 C183.116696,27.0839286 182.471628,27.6977558 181.900575,28.3962593 C181.329522,29.0947628 180.858939,29.9149629 180.488813,30.8568843 C180.118686,31.7988056 179.880751,32.9365026 179.775,34.2700093 L194.463675,34.2700093 L194.463675,31.8887593 L182.915775,31.8887593 C183.042676,31.1902558 183.312335,30.571137 183.724763,30.0313843 C184.13719,29.4916316 184.63421,28.9889283 185.215838,28.5232593 C185.797465,28.0575903 186.437247,27.6183863 187.1352,27.2056343 C187.833153,26.7928822 188.531097,26.3748447 189.22905,25.9515093 C189.927003,25.507007 190.603797,25.041345 191.25945,24.5545093 C191.915103,24.0676735 192.496722,23.5226373 193.004325,22.9193843 C193.511928,22.3161312 193.919061,21.6335131 194.225738,20.8715093 C194.532414,20.1095054 194.68575,19.2310976 194.68575,18.2362593 C194.68575,17.1779206 194.500689,16.2465966 194.130562,15.4422593 C193.760436,14.6379219 193.258128,13.965887 192.623625,13.4261343 C191.989122,12.8863816 191.243592,12.4736357 190.387012,12.1878843 C189.530433,11.9021328 188.615705,11.7592593 187.6428,11.7592593 C186.458394,11.7592593 185.400905,11.9603406 184.4703,12.3625093 C183.539695,12.7646779 182.762441,13.3202974 182.138513,14.0293843 C181.514584,14.7384711 181.054576,15.5798377 180.758475,16.5535093 C180.462374,17.5271808 180.34605,18.5855035 180.4095,19.7285093 L180.4095,19.7285093 Z" id="2" fill="#000000" fill-rule="evenodd"></path>
                <path d="M316.166113,21.4112593 L316.166113,23.6972593 C316.673715,23.6337589 317.213035,23.6020093 317.784088,23.6020093 C318.460891,23.6020093 319.090097,23.6919667 319.671725,23.8718843 C320.253353,24.0518018 320.755661,24.3269657 321.178663,24.6973843 C321.601665,25.0678028 321.940062,25.5228816 322.193863,26.0626343 C322.447664,26.602387 322.574563,27.2215058 322.574563,27.9200093 C322.574563,28.597346 322.442377,29.2058816 322.178,29.7456343 C321.913624,30.285387 321.559365,30.7404657 321.115213,31.1108843 C320.671061,31.4813028 320.152891,31.7670499 319.560688,31.9681343 C318.968485,32.1692186 318.344566,32.2697593 317.688913,32.2697593 C316.144955,32.2697593 314.971142,31.8093889 314.167438,30.8886343 C313.363734,29.9678797 312.940738,28.7772666 312.898438,27.3167593 L310.201813,27.3167593 C310.180663,28.4809317 310.344574,29.518088 310.69355,30.4282593 C311.042527,31.3384305 311.544835,32.1057145 312.200488,32.7301343 C312.856141,33.354554 313.649258,33.8255077 314.579863,34.1430093 C315.510468,34.4605108 316.546807,34.6192593 317.688913,34.6192593 C318.746418,34.6192593 319.745746,34.4763857 320.686925,34.1906343 C321.628105,33.9048828 322.447659,33.4762621 323.145613,32.9047593 C323.843566,32.3332564 324.398748,31.6188885 324.811175,30.7616343 C325.223602,29.90438 325.429813,28.9148482 325.429813,27.7930093 C325.429813,26.4383358 325.096704,25.2635976 324.430475,24.2687593 C323.764247,23.273921 322.74377,22.6283441 321.369013,22.3320093 L321.369013,22.2685093 C322.257317,21.8663406 322.99756,21.2736798 323.589763,20.4905093 C324.181966,19.7073387 324.478063,18.8077643 324.478063,17.7917593 C324.478063,16.7545874 324.303577,15.8550131 323.9546,15.0930093 C323.605624,14.3310054 323.124466,13.706595 322.511113,13.2197593 C321.89776,12.7329235 321.17338,12.3678021 320.33795,12.1243843 C319.502521,11.8809664 318.598368,11.7592593 317.625463,11.7592593 C316.504507,11.7592593 315.515755,11.9391741 314.659175,12.2990093 C313.802596,12.6588444 313.088791,13.1562561 312.517738,13.7912593 C311.946685,14.4262624 311.507827,15.1882548 311.20115,16.0772593 C310.894474,16.9662637 310.719988,17.9505039 310.677688,19.0300093 L313.374313,19.0300093 C313.374313,18.3738393 313.458912,17.7494289 313.628113,17.1567593 C313.797314,16.5640896 314.056399,16.0455115 314.405375,15.6010093 C314.754352,15.156507 315.198498,14.8019689 315.737825,14.5373843 C316.277153,14.2727996 316.906359,14.1405093 317.625463,14.1405093 C318.767569,14.1405093 319.719309,14.4421312 320.480713,15.0453843 C321.242117,15.6486373 321.622813,16.5535032 321.622813,17.7600093 C321.622813,18.3526789 321.506489,18.8818403 321.273838,19.3475093 C321.041187,19.8131783 320.729227,20.1994661 320.33795,20.5063843 C319.946673,20.8133025 319.491953,21.0461335 318.973775,21.2048843 C318.455598,21.3636351 317.910991,21.4430093 317.339938,21.4430093 L316.768888,21.4430093 L316.451638,21.4430093 C316.367037,21.4430093 316.271863,21.432426 316.166113,21.4112593 L316.166113,21.4112593 Z" id="3" fill="#000000" fill-rule="evenodd"></path>
                <path d="M66.266475,90.1182593 L58.715925,90.1182593 L66.203025,79.1010093 L66.266475,79.1010093 L66.266475,90.1182593 Z M68.804475,90.1182593 L68.804475,75.2592593 L66.647175,75.2592593 L56.4,89.8960093 L56.4,92.4995093 L66.266475,92.4995093 L66.266475,97.7700093 L68.804475,97.7700093 L68.804475,92.4995093 L71.850075,92.4995093 L71.850075,90.1182593 L68.804475,90.1182593 Z" id="4" fill="#000000" fill-rule="evenodd"></path>
                <path d="M194.162875,77.6405093 L194.162875,75.2592593 L183.059125,75.2592593 L180.965275,86.9432593 L183.2812,87.0702593 C183.809953,86.4352561 184.418009,85.9219696 185.105388,85.5303843 C185.792766,85.138799 186.580596,84.9430093 187.4689,84.9430093 C188.230304,84.9430093 188.922959,85.070008 189.546887,85.3240093 C190.170816,85.5780105 190.704848,85.9325487 191.149,86.3876343 C191.593152,86.8427199 191.936836,87.3824645 192.180062,88.0068843 C192.423289,88.631304 192.5449,89.3139222 192.5449,90.0547593 C192.5449,90.9437637 192.418001,91.7216309 192.1642,92.3883843 C191.910399,93.0551376 191.566715,93.610757 191.133138,94.0552593 C190.69956,94.4997615 190.191965,94.8331331 189.610337,95.0553843 C189.02871,95.2776354 188.420653,95.3887593 187.78615,95.3887593 C187.109347,95.3887593 186.490715,95.2882186 185.930238,95.0871343 C185.36976,94.8860499 184.883315,94.6003028 184.470887,94.2298843 C184.05846,93.8594657 183.730639,93.4255534 183.487413,92.9281343 C183.244186,92.4307151 183.101425,91.8962621 183.059125,91.3247593 L180.3625,91.3247593 C180.38365,92.3407643 180.584573,93.2509219 180.965275,94.0552593 C181.345977,94.8595966 181.864147,95.5316316 182.5198,96.0713843 C183.175453,96.611137 183.931558,97.0238828 184.788138,97.3096343 C185.644717,97.5953857 186.559445,97.7382593 187.53235,97.7382593 C188.843657,97.7382593 189.991033,97.5318863 190.974512,97.1191343 C191.957992,96.7063822 192.777547,96.1507628 193.4332,95.4522593 C194.088853,94.7537558 194.580586,93.9547221 194.908412,93.0551343 C195.236239,92.1555464 195.40015,91.229514 195.40015,90.2770093 C195.40015,88.9858361 195.209802,87.8587224 194.8291,86.8956343 C194.448398,85.9325461 193.930228,85.1282208 193.274575,84.4826343 C192.618922,83.8370477 191.846954,83.3555108 190.95865,83.0380093 C190.070346,82.7205077 189.12918,82.5617593 188.135125,82.5617593 C187.373721,82.5617593 186.607041,82.6940496 185.835062,82.9586343 C185.063084,83.2232189 184.433877,83.6306732 183.947425,84.1810093 L183.883975,84.1175093 L185.089525,77.6405093 L194.162875,77.6405093 Z" id="5" fill="#000000" fill-rule="evenodd"></path>
                <path d="M322.1286,81.0060093 L324.825225,81.0060093 C324.656024,79.1433333 324.02153,77.7198892 322.921725,76.7356343 C321.82192,75.7513793 320.341434,75.2592593 318.480225,75.2592593 C316.872817,75.2592593 315.54038,75.5979225 314.482875,76.2752593 C313.42537,76.952596 312.579378,77.8521703 311.944875,78.9740093 C311.310372,80.0958482 310.860939,81.3817103 310.596562,82.8316343 C310.332186,84.2815582 310.2,85.7790849 310.2,87.3242593 C310.2,88.5095985 310.289887,89.7372529 310.469662,91.0072593 C310.649438,92.2772656 311.014272,93.4414206 311.564175,94.4997593 C312.114078,95.5580979 312.89662,96.4259225 313.911825,97.1032593 C314.92703,97.780596 316.270042,98.1192593 317.9409,98.1192593 C319.357957,98.1192593 320.547633,97.8811366 321.509962,97.4048843 C322.472292,96.9286319 323.24426,96.3253879 323.825887,95.5951343 C324.407515,94.8648806 324.825224,94.0552637 325.079025,93.1662593 C325.332826,92.2772548 325.459725,91.4200134 325.459725,90.5945093 C325.459725,89.5573374 325.301102,88.5942637 324.98385,87.7052593 C324.666598,86.8162548 324.217165,86.0436792 323.635537,85.3875093 C323.05391,84.7313393 322.334817,84.2180528 321.478237,83.8476343 C320.621658,83.4772157 319.654055,83.2920093 318.5754,83.2920093 C317.348694,83.2920093 316.264767,83.5248403 315.323587,83.9905093 C314.382408,84.4561783 313.594578,85.2075874 312.960075,86.2447593 L312.896625,86.1812593 C312.917775,85.3134216 313.002374,84.3820976 313.150425,83.3872593 C313.298476,82.392421 313.568136,81.4663885 313.959412,80.6091343 C314.350689,79.75188 314.895297,79.0428037 315.59325,78.4818843 C316.291203,77.9209648 317.211219,77.6405093 318.353325,77.6405093 C319.43198,77.6405093 320.299122,77.9474229 320.954775,78.5612593 C321.610428,79.1750957 322.001699,79.9900042 322.1286,81.0060093 L322.1286,81.0060093 Z M318.0678,85.6732593 C318.829204,85.6732593 319.495422,85.8108412 320.066475,86.0860093 C320.637528,86.3611773 321.113398,86.7262987 321.4941,87.1813843 C321.874802,87.6364699 322.155037,88.1762145 322.334812,88.8006343 C322.514588,89.425054 322.604475,90.0865058 322.604475,90.7850093 C322.604475,91.4411792 322.504014,92.0708812 322.303088,92.6741343 C322.102161,93.2773873 321.811352,93.8118403 321.43065,94.2775093 C321.049948,94.7431783 320.579365,95.1082996 320.018887,95.3728843 C319.45841,95.6374689 318.808054,95.7697593 318.0678,95.7697593 C317.327546,95.7697593 316.666615,95.6374689 316.084987,95.3728843 C315.50336,95.1082996 315.016914,94.7537615 314.625637,94.3092593 C314.234361,93.864757 313.932976,93.3355957 313.721475,92.7217593 C313.509974,92.1079229 313.404225,91.4517628 313.404225,90.7532593 C313.404225,90.0547558 313.504686,89.393304 313.705612,88.7688843 C313.906539,88.1444645 314.207923,87.6047199 314.609775,87.1496343 C315.011627,86.6945487 315.498072,86.3347189 316.069125,86.0701343 C316.640178,85.8055496 317.306396,85.6732593 318.0678,85.6732593 L318.0678,85.6732593 Z" id="6" fill="#000000" fill-rule="evenodd"></path>
                <path d="M71.549275,141.077009 L71.549275,138.759259 L56.9875,138.759259 L56.9875,141.299259 L68.7892,141.299259 C67.6047941,142.548099 66.4997176,143.913335 65.4739375,145.395009 C64.4481574,146.876683 63.5440039,148.448293 62.76145,150.109884 C61.9788961,151.771476 61.339115,153.507125 60.8420875,155.316884 C60.34506,157.126643 60.0331006,158.984 59.9062,160.889009 L62.920075,160.889009 C63.0258255,159.132167 63.3219226,157.322435 63.808375,155.459759 C64.2948274,153.597083 64.9240336,151.787351 65.6960125,150.030509 C66.4679914,148.273667 67.350995,146.622684 68.34505,145.077509 C69.339105,143.532335 70.4071693,142.198848 71.549275,141.077009 L71.549275,141.077009 Z" id="7" fill="#000000" fill-rule="evenodd"></path>
                <path d="M184.010875,144.601259 C184.010875,144.029756 184.116624,143.532345 184.328125,143.109009 C184.539626,142.685674 184.819861,142.325844 185.168837,142.029509 C185.517814,141.733174 185.935523,141.510927 186.421975,141.362759 C186.908427,141.214592 187.416022,141.140509 187.944775,141.140509 C189.04458,141.140509 189.948734,141.431548 190.657262,142.013634 C191.365791,142.595721 191.72005,143.458254 191.72005,144.601259 C191.72005,145.744265 191.371078,146.633256 190.673125,147.268259 C189.975172,147.903262 189.08688,148.220759 188.008225,148.220759 C187.458322,148.220759 186.940152,148.146677 186.4537,147.998509 C185.967248,147.850342 185.544252,147.628094 185.1847,147.331759 C184.825148,147.035424 184.539626,146.65972 184.328125,146.204634 C184.116624,145.749549 184.010875,145.215096 184.010875,144.601259 L184.010875,144.601259 Z M181.155625,144.506009 C181.155625,145.522014 181.441147,146.45863 182.0122,147.315884 C182.583253,148.173139 183.344645,148.792257 184.2964,149.173259 C183.027394,149.617761 182.054503,150.332129 181.3777,151.316384 C180.700897,152.300639 180.3625,153.459503 180.3625,154.793009 C180.3625,155.936015 180.558136,156.93613 180.949412,157.793384 C181.340689,158.650639 181.880009,159.365006 182.567387,159.936509 C183.254766,160.508012 184.063745,160.931341 184.99435,161.206509 C185.924955,161.481677 186.92957,161.619259 188.008225,161.619259 C189.04458,161.619259 190.01747,161.471094 190.926925,161.174759 C191.83638,160.878424 192.624209,160.439221 193.290437,159.857134 C193.956666,159.275048 194.485411,158.56068 194.876687,157.714009 C195.267964,156.867338 195.4636,155.893681 195.4636,154.793009 C195.4636,153.396002 195.135778,152.215972 194.480125,151.252884 C193.824472,150.289796 192.819857,149.596595 191.46625,149.173259 C192.418005,148.749924 193.17411,148.120222 193.734587,147.284134 C194.295065,146.448047 194.5753,145.522014 194.5753,144.506009 C194.5753,143.786339 194.448401,143.082554 194.1946,142.394634 C193.940799,141.706714 193.54424,141.092887 193.004912,140.553134 C192.465585,140.013382 191.762354,139.579469 190.8952,139.251384 C190.028046,138.923299 188.981131,138.759259 187.754425,138.759259 C186.887271,138.759259 186.057141,138.886258 185.264012,139.140259 C184.470884,139.394261 183.767653,139.764673 183.1543,140.251509 C182.540947,140.738345 182.054502,141.336297 181.69495,142.045384 C181.335398,142.754471 181.155625,143.574671 181.155625,144.506009 L181.155625,144.506009 Z M183.21775,154.920009 C183.21775,154.263839 183.339361,153.671179 183.582587,153.142009 C183.825814,152.61284 184.16421,152.157761 184.597787,151.776759 C185.031365,151.395757 185.53896,151.104719 186.120587,150.903634 C186.702215,150.70255 187.320847,150.602009 187.9765,150.602009 C188.611003,150.602009 189.208485,150.713133 189.768962,150.935384 C190.32944,151.157635 190.821173,151.459257 191.244175,151.840259 C191.667177,152.221261 192.000286,152.671048 192.243512,153.189634 C192.486739,153.70822 192.60835,154.274423 192.60835,154.888259 C192.60835,155.523262 192.497314,156.10534 192.275237,156.634509 C192.053161,157.163679 191.735915,157.624049 191.323487,158.015634 C190.91106,158.40722 190.424615,158.714133 189.864137,158.936384 C189.30366,159.158635 188.685028,159.269759 188.008225,159.269759 C186.612318,159.269759 185.464942,158.883471 184.566062,158.110884 C183.667183,157.338297 183.21775,156.274683 183.21775,154.920009 L183.21775,154.920009 Z" id="8" fill="#000000" fill-rule="evenodd"></path>
                <path d="M183.21775,221.920741 C183.21775,221.370405 183.223037,220.761869 183.233612,220.095116 C183.244188,219.428362 183.297062,218.761619 183.392237,218.094866 C183.487413,217.428112 183.624887,216.777244 183.804663,216.142241 C183.984438,215.507238 184.248811,214.951618 184.597787,214.475366 C184.946764,213.999113 185.385622,213.612826 185.914375,213.316491 C186.443128,213.020156 187.088196,212.871991 187.8496,212.871991 C188.611004,212.871991 189.256072,213.020156 189.784825,213.316491 C190.313578,213.612826 190.752436,213.999113 191.101413,214.475366 C191.450389,214.951618 191.714762,215.507238 191.894537,216.142241 C192.074313,216.777244 192.211787,217.428112 192.306962,218.094866 C192.402138,218.761619 192.455012,219.428362 192.465588,220.095116 C192.476163,220.761869 192.48145,221.370405 192.48145,221.920741 C192.48145,222.767412 192.455013,223.714611 192.402138,224.762366 C192.349262,225.810121 192.180064,226.794361 191.894537,227.715116 C191.609011,228.63587 191.149003,229.413738 190.5145,230.048741 C189.879997,230.683744 188.991706,231.001241 187.8496,231.001241 C186.707494,231.001241 185.819203,230.683744 185.1847,230.048741 C184.550197,229.413738 184.090189,228.63587 183.804663,227.715116 C183.519136,226.794361 183.349938,225.810121 183.297062,224.762366 C183.244187,223.714611 183.21775,222.767412 183.21775,221.920741 L183.21775,221.920741 Z M180.3625,221.952491 C180.3625,222.777995 180.38365,223.635236 180.42595,224.524241 C180.46825,225.413245 180.573999,226.28107 180.7432,227.127741 C180.912401,227.974412 181.155623,228.773445 181.472875,229.524866 C181.790127,230.276286 182.223697,230.937738 182.7736,231.509241 C183.323503,232.080744 184.016158,232.530531 184.851587,232.858616 C185.687017,233.186701 186.686344,233.350741 187.8496,233.350741 C189.034006,233.350741 190.038621,233.186701 190.863475,232.858616 C191.688329,232.530531 192.375697,232.080744 192.9256,231.509241 C193.475503,230.937738 193.909073,230.276286 194.226325,229.524866 C194.543577,228.773445 194.786799,227.974412 194.956,227.127741 C195.125201,226.28107 195.23095,225.413245 195.27325,224.524241 C195.31555,223.635236 195.3367,222.777995 195.3367,221.952491 C195.3367,221.126987 195.31555,220.269745 195.27325,219.380741 C195.23095,218.491736 195.125201,217.623912 194.956,216.777241 C194.786799,215.93057 194.543577,215.126245 194.226325,214.364241 C193.909073,213.602237 193.475503,212.935494 192.9256,212.363991 C192.375697,211.792488 191.683042,211.337409 190.847612,210.998741 C190.012183,210.660072 189.012856,210.490741 187.8496,210.490741 C186.686344,210.490741 185.687017,210.660072 184.851587,210.998741 C184.016158,211.337409 183.323503,211.792488 182.7736,212.363991 C182.223697,212.935494 181.790127,213.602237 181.472875,214.364241 C181.155623,215.126245 180.912401,215.93057 180.7432,216.777241 C180.573999,217.623912 180.46825,218.491736 180.42595,219.380741 C180.38365,220.269745 180.3625,221.126987 180.3625,221.952491 L180.3625,221.952491 Z" id="0" fill="#000000" fill-rule="evenodd"></path>
                <path d="M313.3725,155.840759 L310.675875,155.840759 C310.845076,157.788102 311.553594,159.238004 312.80145,160.190509 C314.049306,161.143014 315.614391,161.619259 317.49675,161.619259 C320.225114,161.619259 322.207906,160.576811 323.445187,158.491884 C324.682469,156.406957 325.3011,153.417195 325.3011,149.522509 C325.3011,147.384665 325.09489,145.622558 324.682462,144.236134 C324.270035,142.849711 323.714853,141.754347 323.0169,140.950009 C322.318947,140.145672 321.50468,139.579469 320.574075,139.251384 C319.64347,138.923299 318.64943,138.759259 317.591925,138.759259 C316.51327,138.759259 315.51923,138.939174 314.609775,139.299009 C313.70032,139.658844 312.917778,140.161548 312.262125,140.807134 C311.606472,141.452721 311.098877,142.225296 310.739325,143.124884 C310.379773,144.024472 310.2,145.014004 310.2,146.093509 C310.2,147.194181 310.353336,148.210171 310.660012,149.141509 C310.966689,150.072847 311.421409,150.866589 312.024187,151.522759 C312.626966,152.178929 313.372496,152.692216 314.2608,153.062634 C315.149104,153.433053 316.164294,153.618259 317.3064,153.618259 C318.406205,153.618259 319.421395,153.337804 320.352,152.776884 C321.282605,152.215965 322.001697,151.459264 322.5093,150.506759 L322.57275,150.570259 C322.48815,153.512441 322.033429,155.697877 321.208575,157.126634 C320.383721,158.555391 319.146458,159.269759 317.49675,159.269759 C316.418095,159.269759 315.487504,158.973429 314.70495,158.380759 C313.922396,157.78809 313.478251,156.941431 313.3725,155.840759 L313.3725,155.840759 Z M322.096875,146.284009 C322.096875,146.940179 321.991126,147.569881 321.779625,148.173134 C321.568124,148.776387 321.261452,149.305549 320.8596,149.760634 C320.457748,150.21572 319.971303,150.57555 319.40025,150.840134 C318.829197,151.104719 318.194703,151.237009 317.49675,151.237009 C316.841097,151.237009 316.243615,151.104719 315.704288,150.840134 C315.16496,150.57555 314.699664,150.221011 314.308387,149.776509 C313.917111,149.332007 313.610439,148.824012 313.388363,148.252509 C313.166286,147.681006 313.05525,147.088346 313.05525,146.474509 C313.05525,145.776006 313.134562,145.109262 313.293187,144.474259 C313.451813,143.839256 313.705611,143.273053 314.054588,142.775634 C314.403564,142.278215 314.858285,141.881344 315.418763,141.585009 C315.97924,141.288674 316.661321,141.140509 317.465025,141.140509 C318.226429,141.140509 318.892647,141.278091 319.4637,141.553259 C320.034753,141.828427 320.515911,142.204132 320.907188,142.680384 C321.298464,143.156637 321.594561,143.701673 321.795487,144.315509 C321.996414,144.929346 322.096875,145.585506 322.096875,146.284009 L322.096875,146.284009 Z" id="9" fill="#000000" fill-rule="evenodd"></path>
            </g>
        </g>
    </g>
</svg>