<?xml version="1.0" encoding="UTF-8" standalone="no"?>
<svg width="96px" height="72px" viewBox="0 0 96 72" version="1.1" xmlns="http://www.w3.org/2000/svg" xmlns:xlink="http://www.w3.org/1999/xlink">
    <!-- Generator: Sketch 39.1 (31720) - http://www.bohemiancoding.com/sketch -->
    <title>phone-bottom</title>
    <desc>Created with Sketch.</desc>
    <defs></defs>
    <g id="Usability-Updates" stroke="none" stroke-width="1" fill="none" fill-rule="evenodd">
        <path d="M0.984745716,64.9666576 L0.984745716,48.4056501 C0.984745716,48.3279991 1.00253852,48.2503481 1.02477952,48.0218323 C1.05369282,47.8310327 1.11151942,47.6446703 1.23384493,47.3895313 C1.30724024,47.2342293 1.40287654,47.0922389 1.55411535,46.8925649 L33.465504,10.4653719 L33.465504,4.52839835 C33.465504,2.39632377 35.198078,0.672471586 37.3309901,0.672471586 C39.4639021,0.672471586 41.1964761,2.39632377 41.1964761,4.52839835 L41.1964761,10.4653719 L55.3106155,10.4653719 L55.3106155,4.52839835 C55.3106155,2.39632377 57.0387413,0.672471586 59.1716533,0.672471586 C61.3090136,0.672471586 63.0371394,2.39632377 63.0371394,4.52839835 L63.0460358,10.4653719 C63.0460358,10.4653719 94.9863378,46.9413741 95.0085788,46.9635601 C95.1131115,47.0922389 95.2087478,47.2364479 95.3310733,47.4738381 C95.4089168,47.6468889 95.4600711,47.8332513 95.5090013,48.1726971 C95.5178977,48.2503481 95.5356905,48.3279991 95.5356905,48.4056501 L95.5356905,64.9666576 L95.5356905,71.313981 L0.984745716,71.313981 L0.984745716,64.9666576 Z M48.4099652,59.5994194 C58.811817,59.5994194 67.2441839,51.1779541 67.2441839,40.7895501 C67.2441839,30.4011461 58.811817,21.9796807 48.4099652,21.9796807 C38.0081134,21.9796807 29.5757465,30.4011461 29.5757465,40.7895501 C29.5757465,51.1779541 38.0081134,59.5994194 48.4099652,59.5994194 Z M48.4099652,52.2844702 C54.7666524,52.2844702 59.9197655,47.1380192 59.9197655,40.7895501 C59.9197655,34.441081 54.7666524,29.2946299 48.4099652,29.2946299 C42.053278,29.2946299 36.9001649,34.441081 36.9001649,40.7895501 C36.9001649,47.1380192 42.053278,52.2844702 48.4099652,52.2844702 Z" id="phone-bottom" fill="#587583"></path>
    </g>
</svg>