<?xml version="1.0" encoding="UTF-8" standalone="no"?>
<svg width="107px" height="36px" viewBox="0 0 107 36" version="1.1" xmlns="http://www.w3.org/2000/svg" xmlns:xlink="http://www.w3.org/1999/xlink">
    <!-- Generator: Sketch 39.1 (31720) - http://www.bohemiancoding.com/sketch -->
    <title>phone-top</title>
    <desc>Created with Sketch.</desc>
    <defs></defs>
    <g id="Usability-Updates" stroke="none" stroke-width="1" fill="none" fill-rule="evenodd">
        <path d="M74.1230237,1.95794325e-13 C73.7849493,1.95711521e-13 73.5625319,0.00443719996 73.5358418,0.00887439991 L33.5362973,0.00887439991 C33.5362973,0.00887439991 33.2960865,1.85794609e-13 32.8557001,1.85686746e-13 C29.8641861,1.84954036e-13 3.53886308,0.931811991 -0.0020218662,33.2967485 C-0.0731954329,33.9645471 0.144773615,34.6279085 0.602953451,35.1204376 C1.05890911,35.6107482 1.71948878,35.8880732 2.38006845,35.8570128 L24.854876,34.9207636 C26.0826201,34.8763916 27.0612566,33.8891147 27.0968434,32.6666661 C27.1880345,29.1879013 28.5269873,19.2374804 33.3245305,19.1243318 C35.2195267,19.0799598 42.8689312,19.1598294 45.4511972,19.250792 C47.6931645,19.3240058 50.0085296,19.4016568 52.2705146,19.4105312 C52.3305672,19.4149684 54.5124819,19.4194056 54.5124819,19.4194056 C56.96797,19.4016568 59.283335,19.3240058 61.5230782,19.250792 C64.1075684,19.1642666 71.7547487,19.0821784 73.6541933,19.1243318 C78.4495123,19.2374804 79.7884651,29.1856827 79.8796562,32.6666661 C79.915243,33.8891147 80.8961037,34.8763916 82.1216235,34.9207636 L104.596431,35.8570128 C105.321512,35.8570128 105.93316,35.5929994 106.373546,35.1204376 C106.83395,34.6256899 107.056368,33.9623285 106.980746,33.2945299 C103.437637,0.931811991 77.1123135,1.9652649e-13 74.1230237,1.95794325e-13 Z" id="phone-top" fill="#587583"></path>
    </g>
</svg>